
        <svg xmlns="http://www.w3.org/2000/svg" xmlns:xlink="http://www.w3.org/1999/xlink" version="1.1" width="3176.470588235294" 
        height="1088.7966843940328" viewBox="0 0 3176.470588235294 1088.7966843940328">
			
			<g transform="scale(8.823529411764705) translate(10, 10)">
				<defs id="SvgjsDefs8119"><linearGradient id="SvgjsLinearGradient8126"><stop id="SvgjsStop8127" stop-color="#b88746" offset="0"></stop><stop id="SvgjsStop8128" stop-color="#fdf5a6" offset="1"></stop></linearGradient><linearGradient id="SvgjsLinearGradient8129"><stop id="SvgjsStop8130" stop-color="#8f5e25" offset="0"></stop><stop id="SvgjsStop8131" stop-color="#fbf4a1" offset="0.5"></stop><stop id="SvgjsStop8132" stop-color="#8f5e25" offset="1"></stop></linearGradient><linearGradient id="SvgjsLinearGradient8133"><stop id="SvgjsStop8134" stop-color="#8f5e25" offset="0"></stop><stop id="SvgjsStop8135" stop-color="#fbf4a1" offset="0.5"></stop><stop id="SvgjsStop8136" stop-color="#8f5e25" offset="1"></stop></linearGradient></defs><g id="SvgjsG8120" featureKey="symbolFeature-0" transform="matrix(1.1901123484507166,0,0,1.1901123484507166,-8.910755329818711,-7.219221487542374)" fill="url(#SvgjsLinearGradient8126)"><rect xmlns="http://www.w3.org/2000/svg" x="34.571" y="16.321" fill="url(#SvgjsLinearGradient8126)" width="5.716" height="5.716"></rect><rect xmlns="http://www.w3.org/2000/svg" x="34.571" y="28.368" fill="url(#SvgjsLinearGradient8126)" width="5.716" height="5.716"></rect><rect xmlns="http://www.w3.org/2000/svg" x="34.571" y="40.416" fill="url(#SvgjsLinearGradient8126)" width="5.716" height="5.716"></rect><rect xmlns="http://www.w3.org/2000/svg" x="34.571" y="52.464" fill="url(#SvgjsLinearGradient8126)" width="5.716" height="5.716"></rect><rect xmlns="http://www.w3.org/2000/svg" x="80.349" y="16.321" fill="url(#SvgjsLinearGradient8126)" width="5.716" height="5.716"></rect><rect xmlns="http://www.w3.org/2000/svg" x="80.349" y="28.368" fill="url(#SvgjsLinearGradient8126)" width="5.716" height="5.716"></rect><rect xmlns="http://www.w3.org/2000/svg" x="80.349" y="40.416" fill="url(#SvgjsLinearGradient8126)" width="5.716" height="5.716"></rect><rect xmlns="http://www.w3.org/2000/svg" x="80.349" y="52.464" fill="url(#SvgjsLinearGradient8126)" width="5.716" height="5.716"></rect><path xmlns="http://www.w3.org/2000/svg" fill="url(#SvgjsLinearGradient8126)" d="M52.324,50.356c-0.188,0-0.375-0.048-0.546-0.142c-0.354-0.199-0.572-0.572-0.572-0.975V26.271  c0-0.404,0.218-0.777,0.572-0.975c0.354-0.194,0.786-0.19,1.13,0.024l18.704,11.483c0.332,0.203,0.532,0.563,0.532,0.951  c0,0.389-0.201,0.749-0.532,0.951L52.909,50.19C52.73,50.301,52.527,50.356,52.324,50.356z M53.442,28.268v18.974l15.45-9.488  L53.442,28.268z"></path><path xmlns="http://www.w3.org/2000/svg" fill="url(#SvgjsLinearGradient8126)" d="M81.978,8.301c4.025,0,7.3,3.275,7.3,7.3V59.3c0,4.025-3.275,7.3-7.3,7.3H38.279c-4.025,0-7.3-3.275-7.3-7.3  V15.601c0-4.025,3.275-7.3,7.3-7.3H81.978 M81.978,6.066H38.279c-5.266,0-9.535,4.269-9.535,9.535V59.3  c0,5.266,4.269,9.535,9.535,9.535h43.699c5.266,0,9.535-4.269,9.535-9.535V15.601C91.512,10.335,87.243,6.066,81.978,6.066  L81.978,6.066z"></path><path xmlns="http://www.w3.org/2000/svg" fill="url(#SvgjsLinearGradient8126)" d="M74.63,71.069h-2.299l0.225,0.924c0.478,1.957,0.164,3.985-0.884,5.706  c-1.048,1.722-2.704,2.931-4.661,3.409l-38.573,9.386c-1.953,0.474-3.98,0.164-5.706-0.886c-1.722-1.047-2.931-2.704-3.409-4.661  l-9.383-38.57c-0.478-1.957-0.161-3.985,0.886-5.706c1.047-1.722,2.704-2.931,4.661-3.409l11.023-2.682V32.28l-11.551,2.809  c-2.538,0.618-4.683,2.187-6.043,4.419c-1.357,2.23-1.765,4.858-1.148,7.396l9.386,38.57c0.615,2.538,2.184,4.683,4.417,6.043  c1.552,0.943,3.293,1.429,5.065,1.429c0.775,0,1.558-0.094,2.331-0.284l38.573-9.386c2.538-0.615,4.683-2.184,6.04-4.417  c1.36-2.23,1.765-4.858,1.148-7.396L74.63,71.069z"></path></g><g id="SvgjsG8121" featureKey="nameFeature-0" transform="matrix(2.219379269207828,0,0,2.219379269207828,117.03257744703777,-26.52602028054108)" fill="url(#SvgjsLinearGradient8129)"><path d="M5.6952 35.8021 l4.3048 0 l0 -19.545 l-5.4011 0 l1.0963 0.82888 l0 18.717 z M13.69 14.678999999999998 l0 22.701 c0 1.4973 -1.1765 2.6471 -2.6738 2.6471 l-9.0107 0 l0 -4.2246 l0 -22.941 l-0.66845 -0.82888 l9.6791 0 c1.4706 0 2.6738 1.2299 2.6738 2.6471 z M19.413063636363635 35.8021 l4.3316 0 l0 -19.545 l-5.4011 0 l1.0695 0.82888 l0 18.717 z M27.407363636363634 14.678999999999998 l0 22.701 c0 1.4973 -1.1497 2.6471 -2.6471 2.6471 l-6.3636 0 c-1.4973 0 -2.6471 -1.1497 -2.6471 -2.6471 l0 -22.701 c0 -1.4171 1.1497 -2.6471 2.6471 -2.6471 l6.3636 0 c1.4973 0 2.6471 1.2299 2.6471 2.6471 z M33.157704812834226 35.8021 l4.3048 0 l0 -23.797 l3.6898 0 l0 25.348 c0 1.4973 -1.2299 2.6471 -2.6471 2.6471 l-6.3636 0.026738 c-1.4973 0 -2.6471 -1.1765 -2.6471 -2.6738 l0 -24.519 l-0.026738 0 l-0.66845 -0.82888 l4.3583 0 l0 23.797 z M46.367616577540105 28.182000000000002 l1.0963 0.80214 l0 6.8449 l4.3048 0 l0 -7.6471 l-5.4011 0 z M47.463916577540104 17.112 l0 6.8182 l4.3048 0 l0 -7.6471 l-5.4011 0 z M55.4587165775401 14.706 l0 8.6898 c0 1.4973 -1.2299 2.6471 -2.6471 2.6471 c1.4171 0 2.6471 1.2299 2.6471 2.6471 l0 8.7166 c0 1.4973 -1.2299 2.6471 -2.6471 2.6471 l-9.0374 0 l0 -27.193 l-0.66845 -0.80214 l9.7059 0 c1.4171 0 2.6471 1.2299 2.6471 2.6471 z M56.877000534759354 12.032 l4.3583 0 l0 23.77 l6.1497 0 l0 4.2246 l-9.8396 0 l0 -0.026738 l0 -4.1979 l0 -22.968 z M68.48257647058823 12.861 l-0.66845 -0.82888 l10.508 0 l0 4.2246 l-7.246 0 l1.0963 0.82888 l0 6.8182 l4.3316 0 l0 4.2513 l-5.4278 0 l1.0963 0.80214 l0 6.8449 l6.1497 0 l0 4.2246 l-9.8396 0 l0 -4.2246 l0 -7.6471 l0 -4.2513 l0 -11.043 z M85.78347112299465 28.102 l-5.8289 0 l0 -4.2246 l5.8289 0 l0 4.2246 z M92.495964171123 11.952000000000002 l0 11.872 l4.3048 0 l0 -11.872 l3.6631 0 l0 27.995 l-3.6631 0 l0 -11.898 l-5.4011 0 l1.0963 0.82888 l0 11.07 l-3.6898 0 l0 -27.193 l-0.66845 -0.80214 l4.3583 0 z"></path></g><g id="SvgjsG8122" featureKey="sloganFeature-0" transform="matrix(2.0087655838503715,0,0,2.0087655838503715,119.99999904214593,62.23739995214213)" fill="url(#SvgjsLinearGradient8133)"><path d="M9.26 20 l0 -12.72 l-3.62 8.66 l-1.12 -0.02 l-3.54 -8.66 l0 12.74 l-0.98 0 l0 -15 l1.04 0 l4.06 9.76 l4.08 -9.76 l1.06 0 l0 15 l-0.98 0 z M15.68 20.18 c-2.52 0 -3.78 -1.32 -3.78 -3.96 l0 -7.4 c0 -1.3333 0.31666 -2.3266 0.95 -2.98 s1.6567 -0.98 3.07 -0.98 c1.2933 0 2.25 0.33 2.87 0.99 s0.93 1.6367 0.93 2.93 l0 7.44 c0 0.66666 -0.07 1.2467 -0.21 1.74 s-0.37 0.90668 -0.69 1.24 s-0.73666 0.58 -1.25 0.74 s-1.1433 0.24 -1.89 0.24 z M18.66 8.76 c0 -0.33334 -0.04664 -0.67338 -0.13998 -1.02 s-0.24668 -0.66332 -0.46002 -0.94998 s-0.49668 -0.52 -0.85002 -0.7 s-0.79 -0.27 -1.31 -0.27 c-0.57334 0 -1.05 0.08 -1.43 0.24 s-0.68 0.38334 -0.9 0.67 s-0.37666 0.62332 -0.47 1.01 s-0.14 0.80666 -0.14 1.26 l0 7.1 c0 0.34666 0.04 0.7 0.12 1.06 s0.22334 0.69 0.43 0.99 s0.48666 0.54666 0.84 0.74 s0.79668 0.29 1.33 0.29 c0.57334 0 1.05 -0.07666 1.43 -0.23 s0.68334 -0.36334 0.91 -0.63 s0.39 -0.58332 0.49 -0.94998 s0.15 -0.76332 0.15 -1.19 l0 -7.42 z M25.560000000000002 20 l-0.86 0 l-4.14 -15 l1.06 0 l3.5 13.26 l3.58 -13.26 l1.02 0 z M31.140000000000004 20 l0 -15 l1.28 0 l0 15 l-1.28 0 z M34.36000000000001 20 l0 -15 l7.36 0 l0 1.16 l-6.32 0 l0 5.7 l6.26 0 l0 0.92 l-6.26 0 l0 6.06 l6.46 0 l0 1.16 l-7.5 0 z M53.34 16.22 c-0.01334 0.66666 -0.076582 1.25 -0.18992 1.75 s-0.30668 0.91334 -0.58002 1.24 s-0.63334 0.57 -1.08 0.73 s-1.01 0.24 -1.69 0.24 c-1.1733 0 -2.0266 -0.32666 -2.56 -0.98 s-0.8 -1.6467 -0.8 -2.98 l0 -7.4 c0 -1.3333 0.27 -2.3266 0.81 -2.98 s1.4633 -0.98 2.77 -0.98 c1.1733 0 2.0134 0.32666 2.52 0.98 s0.77332 1.6467 0.79998 2.98 l0.02 0.92 l-0.92 0 l-0.02 -1.16 c0 -0.33334 -0.03334 -0.67 -0.1 -1.01 s-0.18666 -0.65 -0.36 -0.93 s-0.41668 -0.50666 -0.73002 -0.68 s-0.73 -0.26 -1.25 -0.26 c-0.50666 0 -0.93 0.08 -1.27 0.24 s-0.61 0.38 -0.81 0.66 s-0.33666 0.61 -0.41 0.99 s-0.11 0.79 -0.11 1.23 l0.04 7.5 c0 0.92 0.17 1.64 0.51 2.16 s0.96334 0.78 1.87 0.78 c0.52 0 0.95 -0.07 1.29 -0.21 s0.60666 -0.33666 0.8 -0.59 s0.33 -0.56 0.41 -0.92 s0.12 -0.75334 0.12 -1.18 l0.02 -1.3 l0.92 0 z M62.02 20 l-0.02 -6.98 l-5.48 0 l0.02 6.98 l-1.16 0 l0 -15 l1.16 0 l-0.02 6.96 l5.48 0 l0.02 -6.96 l1.18 0 l0 15 l-1.18 0 z M72.30000000000001 20 l-1.1 -4.42 l-4.88 0 l-1.1 4.42 l-1 0 l4.14 -15 l0.86 0 l4.12 15 l-1.04 0 z M68.82000000000001 5.9399999999999995 l-2.26 8.68 l4.38 0 z M81.42000000000002 20 l-5.8 -12.88 l0 12.88 l-1.1 0 l0 -15 l1.18 0 l5.8 12.3 l0.14 -12.3 l1.08 0 l0 15 l-1.3 0 z M91.48000000000002 20 l-5.8 -12.88 l0 12.88 l-1.1 0 l0 -15 l1.18 0 l5.8 12.3 l0.14 -12.3 l1.08 0 l0 15 l-1.3 0 z M94.44000000000001 20 l0 -15 l7.36 0 l0 1.16 l-6.32 0 l0 5.7 l6.26 0 l0 0.92 l-6.26 0 l0 6.06 l6.46 0 l0 1.16 l-7.5 0 z M103.34000000000002 20 l0 -15 l1.08 0 l0 13.92 l5.1 0 l0 1.08 l-6.18 0 z"></path></g>
			</g>
		</svg>
	